<svg width="27" height="27" viewBox="0 0 27 27" fill="none" xmlns="http://www.w3.org/2000/svg">
<path d="M5.625 20.25V24.4868L7.32937 23.4641L12.6866 20.25H18C19.2409 20.25 20.25 19.2409 20.25 18V9C20.25 7.75912 19.2409 6.75 18 6.75H4.5C3.25912 6.75 2.25 7.75912 2.25 9V18C2.25 19.2409 3.25912 20.25 4.5 20.25H5.625ZM4.5 9H18V18H12.0634L7.875 20.5132V18H4.5V9Z" fill="#f4f4f4"/>
<path d="M22.5 2.25H9C7.75912 2.25 6.75 3.25912 6.75 4.5H20.25C21.4909 4.5 22.5 5.50912 22.5 6.75V15.75C23.7409 15.75 24.75 14.7409 24.75 13.5V4.5C24.75 3.25912 23.7409 2.25 22.5 2.25Z" fill="#f4f4f4"/>
</svg>
