<svg width="27" height="27" viewBox="0 0 27 27" fill="none" xmlns="http://www.w3.org/2000/svg">
<path d="M22.1769 13.6384C22.4739 12.5674 22.5279 11.3546 22.3378 10.0316L21.3636 3.21525C21.3251 2.94728 21.1913 2.70215 20.9868 2.52485C20.7822 2.34755 20.5205 2.24996 20.2498 2.25H6.74982C6.4791 2.24996 6.21745 2.34755 6.01287 2.52485C5.80829 2.70215 5.67451 2.94728 5.63607 3.21525L4.66294 10.0305C4.47282 11.3546 4.52682 12.5674 4.82269 13.6372C5.79469 17.163 8.81757 19.7033 12.3748 20.1555V22.5H10.1248V24.75H16.8748V22.5H14.6248V20.1555C18.1821 19.7033 21.2049 17.163 22.1769 13.6384ZM19.2744 4.5L19.9157 9H7.08282L7.72519 4.5H19.2744ZM6.99169 13.0387C6.84319 12.5055 6.78807 11.9036 6.81282 11.25H20.1879C20.2116 11.9036 20.1564 12.5055 20.0091 13.0399C19.6135 14.4634 18.7634 15.7186 17.5882 16.6141C16.413 17.5096 14.9773 17.9963 13.4998 18C12.0223 17.9963 10.5865 17.5095 9.4115 16.6137C8.23647 15.718 7.38666 14.4625 6.99169 13.0387Z" fill="#f4f4f4"/>
</svg>
