<svg width="27" height="27" viewBox="0 0 27 27" fill="none" xmlns="http://www.w3.org/2000/svg">
<path d="M22.5 6.75H19.125V4.5C19.125 3.25912 18.1159 2.25 16.875 2.25H10.125C8.88412 2.25 7.875 3.25912 7.875 4.5V6.75H4.5C3.25912 6.75 2.25 7.75912 2.25 9V21.375C2.25 22.6159 3.25912 23.625 4.5 23.625H22.5C23.7409 23.625 24.75 22.6159 24.75 21.375V9C24.75 7.75912 23.7409 6.75 22.5 6.75ZM16.875 4.5V6.75H10.125V4.5H16.875ZM9 9H22.5V12.375H4.5V9H9ZM4.5 21.375V14.625H11.25V16.875H15.75V14.625H22.5L22.5011 21.375H4.5Z" fill="#f4f4f4"/>
</svg>
