<svg width="120" height="108" viewBox="0 0 120 108" fill="none" xmlns="http://www.w3.org/2000/svg">
<g filter="url(#filter0_d_103_68)">
<path d="M4.84 62V17.328H6.824L30.184 58.928L41.576 38.832C43.0267 36.272 44.4347 33.7547 45.8 31.28C47.208 28.8053 48.4667 26.5867 49.576 24.624C50.728 22.6187 51.6667 20.9547 52.392 19.632C53.16 18.3093 53.608 17.5413 53.736 17.328H55.144V62H51.24V23.408L29.16 62.448H28.136L17.192 42.928C15.8267 40.4533 14.4827 38.0213 13.16 35.632C11.8373 33.2427 10.6427 31.1093 9.576 29.232C8.50933 27.312 7.61333 25.7547 6.888 24.56C6.20533 23.3227 5.82133 22.64 5.736 22.512V45.488C5.77867 48.944 6.056 52.1227 6.568 55.024C7.08 57.8827 7.99733 60.208 9.32 62H4.84Z" fill="#42462B" fill-opacity="0.7"/>
<path d="M64.84 85V40.328H66.824L90.184 81.928L101.576 61.832C103.027 59.272 104.435 56.7547 105.8 54.28C107.208 51.8053 108.467 49.5867 109.576 47.624C110.728 45.6187 111.667 43.9547 112.392 42.632C113.16 41.3093 113.608 40.5413 113.736 40.328H115.144V85H111.24V46.408L89.16 85.448H88.136L77.192 65.928C75.8267 63.4533 74.4827 61.0213 73.16 58.632C71.8373 56.2427 70.6427 54.1093 69.576 52.232C68.5093 50.312 67.6133 48.7547 66.888 47.56C66.2053 46.3227 65.8213 45.64 65.736 45.512V68.488C65.7787 71.944 66.056 75.1227 66.568 78.024C67.08 80.8827 67.9973 83.208 69.32 85H64.84Z" fill="#42462B" fill-opacity="0.7"/>
</g>
<defs>
<filter id="filter0_d_103_68" x="0.839844" y="17.3281" width="118.304" height="76.1201" filterUnits="userSpaceOnUse" color-interpolation-filters="sRGB">
<feFlood flood-opacity="0" result="BackgroundImageFix"/>
<feColorMatrix in="SourceAlpha" type="matrix" values="0 0 0 0 0 0 0 0 0 0 0 0 0 0 0 0 0 0 127 0" result="hardAlpha"/>
<feOffset dy="4"/>
<feGaussianBlur stdDeviation="2"/>
<feComposite in2="hardAlpha" operator="out"/>
<feColorMatrix type="matrix" values="0 0 0 0 0.631373 0 0 0 0 0.686275 0 0 0 0 0.698039 0 0 0 1 0"/>
<feBlend mode="normal" in2="BackgroundImageFix" result="effect1_dropShadow_103_68"/>
<feBlend mode="normal" in="SourceGraphic" in2="effect1_dropShadow_103_68" result="shape"/>
</filter>
</defs>
</svg>
